#Comment line ignore any data following # character 
#Hierarchical Translation and Rotation (.htr) file 
[Header]	
#Header keywords are followed by a single value 
FileType HTR		#Single word string
DataType HTRS		#Translation followed by rotation and scale data
FileVersion 1		#integer
NumSegments 84		#integer
NumFrames 2		#integer
DataFrameRate 30		#integer, data frame rate in this file
EulerRotationOrder ZYX
CalibrationUnits mm
RotationUnits Degrees
GlobalAxisofGravity Y
BoneLengthAxis Y
ScaleFactor 1.00
[SegmentNames&Hierarchy]
#CHILD	PARENT
MASTER GLOBAL
root MASTER
chest root
L_mid_tent01 root
R_mid_tent01 root
spine01 root
Bip01_Neck chest
L_humerus chest
R_humerus chest
weapon_bone chest
Bip01_Head Bip01_Neck
eye_left_bone Bip01_Head
eye_right_bone Bip01_Head
L_forearm L_humerus
L_front_hand L_forearm
L_weapon_bone L_forearm
L_front_hand01_01 L_front_hand
L_front_hand02_01 L_front_hand
L_front_hand03_01 L_front_hand
L_front_hand01_02 L_front_hand01_01
L_front_hand02_02 L_front_hand02_01
L_front_hand03_02 L_front_hand03_01
R_forearm R_humerus
R_front_hand R_forearm
R_weapon_bone R_forearm
R_front_hand01_01 R_front_hand
R_front_hand02_01 R_front_hand
R_front_hand03_01 R_front_hand
R_front_hand01_02 R_front_hand01_01
R_front_hand02_02 R_front_hand02_01
R_front_hand03_02 R_front_hand03_01
null_rope01_connect L_mid_tent01
Rope1_Seg01 null_rope01_connect
Rope1_Seg02 Rope1_Seg01
Rope1_Seg03 Rope1_Seg02
Rope1_Seg04 Rope1_Seg03
Rope1_Seg05 Rope1_Seg04
Rope1_Seg06 Rope1_Seg05
Rope1_Seg07 Rope1_Seg06
Rope1_Seg09 Rope1_Seg07
L_mid_hand01 Rope1_Seg09
L_mid_hand02 Rope1_Seg09
L_mid_hand03 Rope1_Seg09
null_rope02_connect R_mid_tent01
Rope2_Seg01 null_rope02_connect
Rope2_Seg02 Rope2_Seg01
Rope2_Seg03 Rope2_Seg02
Rope2_Seg04 Rope2_Seg03
Rope2_Seg05 Rope2_Seg04
Rope2_Seg06 Rope2_Seg05
Rope2_Seg07 Rope2_Seg06
Rope2_Seg09 Rope2_Seg07
R_mid_hand01 Rope2_Seg09
R_mid_hand02 Rope2_Seg09
R_mid_hand03 Rope2_Seg09
spine02 spine01
spine03 spine02
pelvis spine03
null_rope03_connect pelvis
null_rope04_connect pelvis
Rope3_Seg01 null_rope03_connect
Rope3_Seg02 Rope3_Seg01
Rope3_Seg03 Rope3_Seg02
Rope3_Seg04 Rope3_Seg03
Rope3_Seg05 Rope3_Seg04
Rope3_Seg06 Rope3_Seg05
Rope3_Seg07 Rope3_Seg06
Rope3_Seg08 Rope3_Seg07
Rope3_Seg09 Rope3_Seg08
R_rear_hand01 Rope3_Seg09
R_rear_hand02 Rope3_Seg09
R_rear_hand03 Rope3_Seg09
Rope4_Seg01 null_rope04_connect
Rope4_Seg02 Rope4_Seg01
Rope4_Seg03 Rope4_Seg02
Rope4_Seg04 Rope4_Seg03
Rope4_Seg05 Rope4_Seg04
Rope4_Seg06 Rope4_Seg05
Rope4_Seg07 Rope4_Seg06
Rope4_Seg08 Rope4_Seg07
Rope4_Seg09 Rope4_Seg08
L_rear_hand01 Rope4_Seg09
L_rear_hand02 Rope4_Seg09
L_rear_hand03 Rope4_Seg09
[BasePosition]
#SegmentName Tx, Ty, Tz, Rx, Ry, Rz, BoneLength
MASTER 0.000000 0.000000 0.000000 -90.000000 0.000000 0.000000 10.000000 
root 0.000000 0.000000 0.000000 0.000000 0.000000 0.000000 10.000000 
chest 0.000000 0.000000 0.000000 0.000000 0.000000 0.000000 10.000000 
L_mid_tent01 0.000000 0.000000 0.000000 0.000000 0.000000 0.000000 10.000000 
R_mid_tent01 0.000000 0.000000 0.000000 0.000000 0.000000 0.000000 10.000000 
spine01 0.000000 0.000000 0.000000 0.000000 0.000000 0.000000 10.000000 
Bip01_Neck 0.000000 0.000000 0.000000 0.000000 0.000000 0.000000 10.000000 
L_humerus 0.000000 0.000000 0.000000 0.000000 0.000000 0.000000 10.000000 
R_humerus 0.000000 0.000000 0.000000 0.000000 0.000000 0.000000 10.000000 
weapon_bone 0.000000 0.000000 0.000000 0.000000 0.000000 0.000000 10.000000 
Bip01_Head 0.000000 0.000000 0.000000 0.000000 0.000000 0.000000 10.000000 
eye_left_bone 0.000000 0.000000 0.000000 0.000000 0.000000 0.000000 10.000000 
eye_right_bone 0.000000 0.000000 0.000000 0.000000 0.000000 0.000000 10.000000 
L_forearm 0.000000 0.000000 0.000000 0.000000 0.000000 0.000000 10.000000 
L_front_hand 0.000000 0.000000 0.000000 0.000000 0.000000 0.000000 10.000000 
L_weapon_bone 0.000000 0.000000 0.000000 0.000000 0.000000 0.000000 10.000000 
L_front_hand01_01 0.000000 0.000000 0.000000 0.000000 0.000000 0.000000 10.000000 
L_front_hand02_01 0.000000 0.000000 0.000000 0.000000 0.000000 0.000000 10.000000 
L_front_hand03_01 0.000000 0.000000 0.000000 0.000000 0.000000 0.000000 10.000000 
L_front_hand01_02 0.000000 0.000000 0.000000 0.000000 0.000000 0.000000 10.000000 
L_front_hand02_02 0.000000 0.000000 0.000000 0.000000 0.000000 0.000000 10.000000 
L_front_hand03_02 0.000000 0.000000 0.000000 0.000000 0.000000 0.000000 10.000000 
R_forearm 0.000000 0.000000 0.000000 0.000000 0.000000 0.000000 10.000000 
R_front_hand 0.000000 0.000000 0.000000 0.000000 0.000000 0.000000 10.000000 
R_weapon_bone 0.000000 0.000000 0.000000 0.000000 0.000000 0.000000 10.000000 
R_front_hand01_01 0.000000 0.000000 0.000000 0.000000 0.000000 0.000000 10.000000 
R_front_hand02_01 0.000000 0.000000 0.000000 0.000000 0.000000 0.000000 10.000000 
R_front_hand03_01 0.000000 0.000000 0.000000 0.000000 0.000000 0.000000 10.000000 
R_front_hand01_02 0.000000 0.000000 0.000000 0.000000 0.000000 0.000000 10.000000 
R_front_hand02_02 0.000000 0.000000 0.000000 0.000000 0.000000 0.000000 10.000000 
R_front_hand03_02 0.000000 0.000000 0.000000 0.000000 0.000000 0.000000 10.000000 
null_rope01_connect 0.000000 0.000000 0.000000 0.000000 0.000000 0.000000 10.000000 
Rope1_Seg01 0.000000 0.000000 0.000000 0.000000 0.000000 0.000000 10.000000 
Rope1_Seg02 0.000000 0.000000 0.000000 0.000000 0.000000 0.000000 10.000000 
Rope1_Seg03 0.000000 0.000000 0.000000 0.000000 0.000000 0.000000 10.000000 
Rope1_Seg04 0.000000 0.000000 0.000000 0.000000 0.000000 0.000000 10.000000 
Rope1_Seg05 0.000000 0.000000 0.000000 0.000000 0.000000 0.000000 10.000000 
Rope1_Seg06 0.000000 0.000000 0.000000 0.000000 0.000000 0.000000 10.000000 
Rope1_Seg07 0.000000 0.000000 0.000000 0.000000 0.000000 0.000000 10.000000 
Rope1_Seg09 0.000000 0.000000 0.000000 0.000000 0.000000 0.000000 10.000000 
L_mid_hand01 0.000000 0.000000 0.000000 0.000000 0.000000 0.000000 10.000000 
L_mid_hand02 0.000000 0.000000 0.000000 0.000000 0.000000 0.000000 10.000000 
L_mid_hand03 0.000000 0.000000 0.000000 0.000000 0.000000 0.000000 10.000000 
null_rope02_connect 0.000000 0.000000 0.000000 0.000000 0.000000 0.000000 10.000000 
Rope2_Seg01 0.000000 0.000000 0.000000 0.000000 0.000000 0.000000 10.000000 
Rope2_Seg02 0.000000 0.000000 0.000000 0.000000 0.000000 0.000000 10.000000 
Rope2_Seg03 0.000000 0.000000 0.000000 0.000000 0.000000 0.000000 10.000000 
Rope2_Seg04 0.000000 0.000000 0.000000 0.000000 0.000000 0.000000 10.000000 
Rope2_Seg05 0.000000 0.000000 0.000000 0.000000 0.000000 0.000000 10.000000 
Rope2_Seg06 0.000000 0.000000 0.000000 0.000000 0.000000 0.000000 10.000000 
Rope2_Seg07 0.000000 0.000000 0.000000 0.000000 0.000000 0.000000 10.000000 
Rope2_Seg09 0.000000 0.000000 0.000000 0.000000 0.000000 0.000000 10.000000 
R_mid_hand01 0.000000 0.000000 0.000000 0.000000 0.000000 0.000000 10.000000 
R_mid_hand02 0.000000 0.000000 0.000000 0.000000 0.000000 0.000000 10.000000 
R_mid_hand03 0.000000 0.000000 0.000000 0.000000 0.000000 0.000000 10.000000 
spine02 0.000000 0.000000 0.000000 0.000000 0.000000 0.000000 10.000000 
spine03 0.000000 0.000000 0.000000 0.000000 0.000000 0.000000 10.000000 
pelvis 0.000000 0.000000 0.000000 0.000000 0.000000 0.000000 10.000000 
null_rope03_connect 0.000000 0.000000 0.000000 0.000000 0.000000 0.000000 10.000000 
null_rope04_connect 0.000000 0.000000 0.000000 0.000000 0.000000 0.000000 10.000000 
Rope3_Seg01 0.000000 0.000000 0.000000 0.000000 0.000000 0.000000 10.000000 
Rope3_Seg02 0.000000 0.000000 0.000000 0.000000 0.000000 0.000000 10.000000 
Rope3_Seg03 0.000000 0.000000 0.000000 0.000000 0.000000 0.000000 10.000000 
Rope3_Seg04 0.000000 0.000000 0.000000 0.000000 0.000000 0.000000 10.000000 
Rope3_Seg05 0.000000 0.000000 0.000000 0.000000 0.000000 0.000000 10.000000 
Rope3_Seg06 0.000000 0.000000 0.000000 0.000000 0.000000 0.000000 10.000000 
Rope3_Seg07 0.000000 0.000000 0.000000 0.000000 0.000000 0.000000 10.000000 
Rope3_Seg08 0.000000 0.000000 0.000000 0.000000 0.000000 0.000000 10.000000 
Rope3_Seg09 0.000000 0.000000 0.000000 0.000000 0.000000 0.000000 10.000000 
R_rear_hand01 0.000000 0.000000 0.000000 0.000000 0.000000 0.000000 10.000000 
R_rear_hand02 0.000000 0.000000 0.000000 0.000000 0.000000 0.000000 10.000000 
R_rear_hand03 0.000000 0.000000 0.000000 0.000000 0.000000 0.000000 10.000000 
Rope4_Seg01 0.000000 0.000000 0.000000 0.000000 0.000000 0.000000 10.000000 
Rope4_Seg02 0.000000 0.000000 0.000000 0.000000 0.000000 0.000000 10.000000 
Rope4_Seg03 0.000000 0.000000 0.000000 0.000000 0.000000 0.000000 10.000000 
Rope4_Seg04 0.000000 0.000000 0.000000 0.000000 0.000000 0.000000 10.000000 
Rope4_Seg05 0.000000 0.000000 0.000000 0.000000 0.000000 0.000000 10.000000 
Rope4_Seg06 0.000000 0.000000 0.000000 0.000000 0.000000 0.000000 10.000000 
Rope4_Seg07 0.000000 0.000000 0.000000 0.000000 0.000000 0.000000 10.000000 
Rope4_Seg08 0.000000 0.000000 0.000000 0.000000 0.000000 0.000000 10.000000 
Rope4_Seg09 0.000000 0.000000 0.000000 0.000000 0.000000 0.000000 10.000000 
L_rear_hand01 0.000000 0.000000 0.000000 0.000000 0.000000 0.000000 10.000000 
L_rear_hand02 0.000000 0.000000 0.000000 0.000000 0.000000 0.000000 10.000000 
L_rear_hand03 0.000000 0.000000 0.000000 0.000000 0.000000 0.000000 10.000000 
#Beginning of Data. Separated by tabs
#Fr	Tx	Ty	Tz	Rx	Ry	Rz	SF
[MASTER]
4 0.000000 0.000000 0.000000 0.001660 0.001660 0.001660 0.000000
5 0.000000 0.000000 0.000000 0.001660 0.001660 0.001660 0.000000
[root]
4 -16.502245 -199.343781 1093.534668 -85.747307 -61.785316 -93.080688 1111.678223
5 -16.502245 -199.343781 1093.534668 -85.747307 -61.785316 -93.080688 1111.678223
[chest]
4 -84.512650 -34.090519 0.000000 2.369437 -1.550700 -123.486023 91.129311
5 -84.512650 -34.090519 0.000000 2.371508 -1.542744 -123.341606 91.129311
[L_mid_tent01]
4 27.299500 22.177483 -249.917984 -16.854679 1.164555 125.347275 252.380859
5 27.299500 22.177483 -249.917984 -16.832954 1.277571 126.140152 252.380859
[R_mid_tent01]
4 23.228794 24.509907 226.238495 -174.995300 1.980115 114.834961 228.744751
5 23.228794 24.509907 226.238495 -175.020752 2.009398 115.505096 228.744751
[spine01]
4 -0.361383 -0.195265 0.000000 -0.000001 -0.000007 22.052340 0.410763
5 -0.361383 -0.195265 0.000000 -0.000001 -0.000007 22.052340 0.410763
[Bip01_Neck]
4 165.484543 71.581718 0.000119 175.896118 1.177290 24.871183 180.302734
5 165.484543 71.581718 0.000119 175.896118 1.177290 24.871183 180.302734
[L_humerus]
4 -13.983130 -135.272980 -120.471481 -91.668335 0.804969 -167.458282 181.680161
5 -13.983130 -135.272980 -120.471481 -91.668327 0.804969 -167.458282 181.680161
[R_humerus]
4 -13.983309 -135.273102 125.287651 103.000740 1.729733 -169.272232 184.909012
5 -13.983309 -135.273102 125.287651 103.000740 1.729732 -169.272232 184.909012
[weapon_bone]
4 235.964890 -300.705902 0.000000 0.000000 -89.951546 -128.212341 382.234833
5 235.964890 -300.705902 0.000000 0.000000 -89.951546 -128.212341 382.234833
[Bip01_Head]
4 102.819824 23.735498 5.410404 3.150732 3.423701 -20.839092 105.662491
5 102.819824 23.735497 5.410404 3.150731 3.423701 -20.839092 105.662491
[eye_left_bone]
4 -24.626970 125.451866 -64.772606 0.000000 -90.000000 -99.840431 143.318359
5 -24.626970 125.451866 -64.772606 0.000000 -90.000000 -99.840431 143.318359
[eye_right_bone]
4 -24.626970 125.451866 64.327362 0.000000 -89.960434 80.159386 143.117676
5 -24.626970 125.451866 64.327362 0.000000 -89.960434 80.159386 143.117676
[L_forearm]
4 322.776093 0.000000 -0.000119 0.000017 0.002347 -89.149834 322.776093
5 322.776093 0.000000 -0.000119 0.000017 0.002347 -89.149834 322.776093
[L_front_hand]
4 241.149185 -0.042021 -3.300071 -177.731201 -0.052560 -80.113426 241.171753
5 241.149185 -0.042021 -3.300071 -177.730438 -0.051361 -80.141853 241.171753
[L_weapon_bone]
4 156.183838 0.000000 0.000000 0.000014 0.000007 0.000001 156.183838
5 156.183838 0.000000 0.000000 0.000014 0.000007 0.000001 156.183838
[L_front_hand01_01]
4 86.095154 20.947098 -0.655860 0.405585 -0.442306 -4.620490 88.609184
5 86.095154 20.947098 -0.655860 0.405585 -0.442306 -4.620490 88.609184
[L_front_hand02_01]
4 86.935165 -11.437475 24.513514 116.959450 3.630817 1.495453 91.046425
5 86.935165 -11.437475 24.513514 116.959450 3.630817 1.495453 91.046425
[L_front_hand03_01]
4 86.637497 -14.123976 -20.424902 -118.420097 -4.656303 -0.152527 90.126129
5 86.637497 -14.123976 -20.424902 -118.420113 -4.656303 -0.152527 90.126129
[L_front_hand01_02]
4 71.020905 -0.000179 0.000030 0.000004 -0.000005 -8.379269 71.020905
5 71.020905 -0.000179 0.000030 0.000004 -0.000005 -8.379269 71.020905
[L_front_hand02_02]
4 71.020927 -0.000119 0.000060 -0.000005 -0.000004 -8.379259 71.020927
5 71.020927 -0.000119 0.000060 -0.000005 -0.000004 -8.379259 71.020927
[L_front_hand03_02]
4 71.020905 -0.000060 0.000060 0.000015 -0.000040 -8.379267 71.020905
5 71.020905 -0.000060 0.000060 0.000015 -0.000040 -8.379267 71.020905
[R_forearm]
4 322.776428 -0.000060 0.000030 0.208803 -0.036202 -81.052063 322.776428
5 322.776428 -0.000060 0.000030 0.209836 -0.037669 -80.934998 322.776428
[R_front_hand]
4 238.847015 -0.006795 2.210259 -1.674634 -0.421889 -92.911621 238.857239
5 238.847015 -0.006795 2.210259 -1.675290 -0.423558 -92.964462 238.857239
[R_weapon_bone]
4 155.664093 0.002503 -0.000030 0.003487 0.001180 -90.988930 155.664078
5 155.664093 0.002503 -0.000030 0.003487 0.001180 -90.988914 155.664078
[R_front_hand01_01]
4 87.624611 14.231146 22.918642 -116.960213 3.496675 -1.324139 91.683487
5 87.624611 14.231146 22.918642 -116.960213 3.496675 -1.324139 91.683487
[R_front_hand02_01]
4 89.356956 14.367283 -19.491137 118.419647 -4.257089 0.609827 92.579636
5 89.356956 14.367283 -19.491137 118.419632 -4.257088 0.609827 92.579636
[R_front_hand03_01]
4 87.286232 -22.307278 -0.143439 -0.387970 -0.231462 4.232001 90.091743
5 87.286232 -22.307278 -0.143439 -0.387970 -0.231462 4.232001 90.091743
[R_front_hand01_02]
4 71.020905 0.000060 0.000119 -0.000005 -0.000020 8.379271 71.020905
5 71.020905 0.000060 0.000119 -0.000005 -0.000020 8.379271 71.020905
[R_front_hand02_02]
4 71.020844 -0.000030 -0.000119 0.000000 -0.000021 8.379271 71.020836
5 71.020844 -0.000030 -0.000119 0.000000 -0.000021 8.379271 71.020836
[R_front_hand03_02]
4 71.020905 0.000000 0.000030 -0.000001 -0.000020 8.379275 71.020905
5 71.020905 0.000000 0.000030 -0.000001 -0.000020 8.379275 71.020905
[null_rope01_connect]
4 328.732483 0.000000 -0.000238 113.359749 -73.420250 -86.730797 328.732483
5 328.732483 0.000000 -0.000238 112.927414 -73.418121 -87.107590 328.732483
[Rope1_Seg01]
4 0.000000 0.000000 0.000000 75.564880 30.649982 85.943481 0.000000
5 0.000000 0.000000 0.000000 75.532608 28.292408 85.239464 0.000000
[Rope1_Seg02]
4 139.999863 -0.000179 0.000000 51.260002 -16.166927 54.031601 139.999863
5 139.999863 -0.000179 0.000000 53.092907 -15.317502 52.101177 139.999863
[Rope1_Seg03]
4 139.999924 0.000060 -0.000060 43.194233 8.211697 12.762042 139.999924
5 139.999924 0.000060 -0.000060 46.119091 9.176643 13.741153 139.999924
[Rope1_Seg04]
4 139.999924 -0.000060 -0.000119 47.593742 44.418541 15.391440 139.999924
5 139.999924 -0.000060 -0.000119 42.891560 45.872280 11.826571 139.999924
[Rope1_Seg05]
4 139.999832 0.000119 -0.000060 0.539543 24.056633 -12.825784 139.999832
5 139.999832 0.000119 -0.000060 0.329511 22.713411 -12.289786 139.999832
[Rope1_Seg06]
4 139.999954 0.000119 -0.000060 -0.473034 10.127877 -5.856884 139.999954
5 139.999954 0.000119 -0.000060 -0.472938 9.730172 -5.629829 139.999954
[Rope1_Seg07]
4 139.999985 0.000060 0.000000 -0.200279 3.416716 -1.958820 139.999985
5 139.999985 0.000060 0.000000 -0.187529 3.179562 -1.824335 139.999985
[Rope1_Seg09]
4 121.602913 0.000119 -0.000089 -89.793175 -1.359789 0.847147 121.602913
5 121.602913 0.000119 -0.000089 -89.793175 -1.359789 0.847147 121.602913
[L_mid_hand01]
4 103.859421 1.038730 8.195221 104.352036 0.341479 -0.444583 104.187431
5 103.859421 1.038730 8.195221 104.352036 0.341479 -0.444583 104.187431
[L_mid_hand02]
4 105.572853 -4.139662 -10.864139 -135.608444 3.905687 -3.381056 106.211075
5 105.572853 -4.139662 -10.864139 -135.608444 3.905687 -3.381056 106.211075
[L_mid_hand03]
4 104.641464 17.579376 -3.913581 -18.761518 -0.324361 2.942912 106.179977
5 104.641464 17.579376 -3.913581 -18.761518 -0.324361 2.942912 106.179977
[null_rope02_connect]
4 328.732849 0.000179 -0.000119 127.296356 84.319489 -89.695541 328.732849
5 328.732849 0.000179 -0.000119 126.393661 84.367958 -89.933533 328.732849
[Rope2_Seg01]
4 0.000076 0.000110 0.000153 -6.875649 51.731506 105.460144 0.000203
5 0.000076 0.000110 0.000153 -6.722610 51.647964 105.639702 0.000203
[Rope2_Seg02]
4 139.999741 -0.000060 -0.000119 -15.868907 -49.755650 -28.632524 139.999756
5 139.999741 -0.000060 -0.000119 -16.353659 -51.097210 -30.271065 139.999756
[Rope2_Seg03]
4 140.000107 0.000030 0.000000 -29.114361 -21.375011 -31.496803 140.000107
5 140.000107 0.000030 0.000000 -28.477131 -19.933580 -30.804438 140.000107
[Rope2_Seg04]
4 139.999802 0.000000 -0.000060 -20.124449 -11.374564 -29.551981 139.999802
5 139.999802 0.000000 -0.000060 -20.263195 -11.487380 -30.167997 139.999802
[Rope2_Seg05]
4 139.999985 -0.000060 0.000119 -13.214947 -0.206218 -34.467995 139.999985
5 139.999985 -0.000060 0.000119 -12.824449 0.194369 -33.927124 139.999985
[Rope2_Seg06]
4 139.999893 -0.000030 -0.000119 -2.370850 3.587458 -13.779801 139.999893
5 139.999893 -0.000030 -0.000119 -2.265897 3.539823 -13.496035 139.999893
[Rope2_Seg07]
4 139.999893 0.000060 -0.000060 -0.380597 1.656910 -5.540825 139.999893
5 139.999893 0.000060 -0.000060 -0.361453 1.613650 -5.386877 139.999893
[Rope2_Seg09]
4 121.338966 0.000089 -0.000060 33.793236 -1.359788 -0.847141 121.338966
5 121.338966 0.000089 -0.000060 33.793236 -1.359788 -0.847141 121.338966
[R_mid_hand01]
4 104.680779 11.144459 -10.335981 -47.384258 2.963522 5.452604 105.778534
5 104.680779 11.144459 -10.335981 -47.384258 2.963522 5.452604 105.778534
[R_mid_hand02]
4 104.070427 2.443552 8.231699 75.626305 -2.250001 1.111093 104.424065
5 104.070427 2.443552 8.231699 75.626297 -2.250001 1.111093 104.424065
[R_mid_hand03]
4 106.028137 -11.221827 -5.996406 -164.381912 2.495983 -6.140520 106.788818
5 106.028137 -11.221827 -5.996406 -164.381912 2.495983 -6.140520 106.788818
[spine02]
4 129.756927 0.001550 0.000119 -3.517885 -2.968436 46.604851 129.756927
5 129.756927 0.001550 0.000119 -3.535007 -2.951455 46.954983 129.756927
[spine03]
4 79.115631 0.000000 -0.000119 5.501197 8.555276 51.409691 79.115631
5 79.115631 0.000000 -0.000119 5.541013 8.581831 51.740391 79.115631
[pelvis]
4 169.435242 0.051022 0.000000 -7.481637 -2.891487 14.401581 169.435257
5 169.435242 0.051022 0.000000 -7.539831 -2.904024 14.524308 169.435257
[null_rope03_connect]
4 -1.257226 -2.466202 137.391083 150.277145 -84.233978 -132.451233 137.418976
5 -1.257226 -2.466202 137.391083 149.704681 -84.198364 -132.700378 137.418976
[null_rope04_connect]
4 -1.259640 -2.480268 -137.844437 150.277145 -84.233978 -132.451233 137.872513
5 -1.259640 -2.480268 -137.844437 149.704681 -84.198364 -132.700378 137.872513
[Rope3_Seg01]
4 0.000010 0.000038 -0.000114 -174.118561 76.800125 -109.100029 0.000121
5 0.000010 0.000038 -0.000114 -173.376343 76.424248 -108.507668 0.000121
[Rope3_Seg02]
4 139.999924 -0.000119 0.000060 -9.284655 -17.772287 9.880625 139.999924
5 139.999924 -0.000119 0.000060 -9.509794 -18.056717 10.126300 139.999924
[Rope3_Seg03]
4 139.999924 -0.000119 0.000119 -18.192429 -42.779366 20.614902 139.999924
5 139.999924 -0.000119 0.000119 -18.506441 -43.261116 20.993084 139.999924
[Rope3_Seg04]
4 139.999924 0.000119 0.000000 -1.027736 -24.857450 5.035888 139.999924
5 139.999924 0.000119 0.000000 -0.932056 -24.582577 4.933905 139.999924
[Rope3_Seg05]
4 139.999924 -0.000238 0.000060 8.706759 -57.473106 13.365832 139.999924
5 139.999924 -0.000238 0.000060 8.790618 -58.202576 13.770984 139.999924
[Rope3_Seg06]
4 139.999893 -0.000119 -0.000060 11.528237 -46.749874 28.797758 139.999893
5 139.999893 -0.000119 -0.000060 11.557167 -45.875488 28.479797 139.999893
[Rope3_Seg07]
4 139.999771 0.000060 -0.000119 3.119113 -5.553128 6.382385 139.999771
5 139.999771 0.000060 -0.000119 3.082623 -5.471774 6.301729 139.999771
[Rope3_Seg08]
4 139.999985 -0.000060 0.000000 1.518532 -2.034995 2.627457 139.999985
5 139.999985 -0.000060 0.000000 1.509460 -2.015679 2.605100 139.999985
[Rope3_Seg09]
4 90.185997 -0.000179 -0.000060 89.793228 -1.359877 -0.847183 90.185997
5 90.185997 -0.000179 -0.000060 89.793228 -1.359877 -0.847183 90.185997
[R_rear_hand01]
4 103.366196 -6.073594 -10.757982 -156.049316 6.070419 -2.795869 104.101845
5 103.366196 -6.073594 -10.757982 -156.049316 6.070418 -2.795869 104.101845
[R_rear_hand02]
4 100.509819 12.039542 -7.992327 -38.708435 1.958051 5.461186 101.543350
5 100.509819 12.039542 -7.992327 -38.708435 1.958051 5.461186 101.543350
[R_rear_hand03]
4 101.539970 5.215704 5.435467 84.307625 -2.361032 4.099037 101.819031
5 101.539970 5.215704 5.435467 84.307632 -2.361033 4.099037 101.819031
[Rope4_Seg01]
4 0.000017 0.000072 -0.000157 86.853081 79.666214 -75.132393 0.000174
5 0.000016 0.000070 -0.000159 86.536804 79.369286 -75.343002 0.000174
[Rope4_Seg02]
4 139.999985 0.000060 0.000119 4.469502 4.944606 -13.314060 139.999985
5 139.999985 0.000060 0.000119 4.549498 5.047838 -13.514431 139.999985
[Rope4_Seg03]
4 139.999924 0.000000 -0.000238 5.182898 10.518903 -43.224255 139.999924
5 139.999924 0.000000 -0.000238 5.152931 10.666090 -43.992382 139.999924
[Rope4_Seg04]
4 139.999985 0.000000 0.000119 -2.662381 3.588758 -39.447151 139.999985
5 139.999985 0.000000 0.000119 -2.704620 3.505632 -39.004704 139.999985
[Rope4_Seg05]
4 139.999802 -0.000060 -0.000119 -7.806129 5.476596 -28.607695 139.999802
5 139.999802 -0.000060 -0.000119 -8.004928 5.588041 -29.008766 139.999802
[Rope4_Seg06]
4 139.999924 0.000000 0.000060 -22.498024 14.121984 -49.936947 139.999924
5 139.999924 0.000000 0.000060 -22.473303 14.228608 -49.723179 139.999924
[Rope4_Seg07]
4 139.999802 0.000000 0.000000 -6.742806 10.858190 -16.827501 139.999802
5 139.999802 0.000000 0.000000 -6.590377 10.727445 -16.515959 139.999802
[Rope4_Seg08]
4 139.999924 0.000000 0.000119 -2.676158 3.183473 -3.983140 139.999924
5 139.999924 0.000000 0.000119 -2.643924 3.114801 -3.891438 139.999924
[Rope4_Seg09]
4 90.185791 0.000060 0.000060 -135.617828 2.228885 0.850567 90.185791
5 90.185791 0.000060 0.000060 -135.617828 2.228885 0.850567 90.185791
[L_rear_hand01]
4 101.696655 -8.392275 -7.654577 -38.746338 0.246096 177.290207 102.329041
5 101.696655 -8.392275 -7.654577 -38.746338 0.246096 177.290207 102.329041
[L_rear_hand02]
4 102.726799 -1.568258 5.773216 84.314880 -1.139137 176.250763 102.900848
5 102.726799 -1.568258 5.773216 84.314865 -1.139137 176.250763 102.900848
[L_rear_hand03]
4 104.552910 9.721220 -10.420293 -155.747955 -4.630845 179.564758 105.519653
5 104.552910 9.721220 -10.420293 -155.747955 -4.630845 179.564758 105.519653
